<svg width="107" height="105" viewBox="0 0 107 105" fill="none" xmlns="http://www.w3.org/2000/svg">
<path d="M18.9479 0H88.0521C98.5292 0 107 8.52564 107 19.0705V85.9295C107 96.4744 98.5292 105 88.0521 105H18.9479C8.47083 105 0 96.4744 0 85.9295V19.0705C0 8.52564 8.47083 0 18.9479 0Z" fill="#330000"/>
<path d="M51.8504 63H35.2654L31.877 73.5449C31.7879 73.9487 31.4312 74.2179 31.0299 74.1731H22.6483C22.1579 74.1731 22.0241 73.9038 22.1579 73.3654L36.5137 31.7692C36.6474 31.3205 36.7812 30.8269 36.9595 30.2885C37.1379 29.3461 37.227 28.359 37.227 27.3718C37.1824 27.1474 37.3608 26.9231 37.5837 26.8782C37.6283 26.8782 37.6729 26.8782 37.7174 26.8782H49.1308C49.4874 26.8782 49.6658 27.0128 49.7104 27.2372L65.9833 73.4551C66.117 73.9487 65.9833 74.1731 65.5374 74.1731H56.2195C55.9074 74.2179 55.5954 73.9936 55.5062 73.6795L51.8504 63ZM37.8512 53.891H49.1754C48.9079 52.9487 48.5512 51.8269 48.1499 50.6602C47.7487 49.4487 47.3474 48.1474 46.9462 46.8013C46.5004 45.4102 46.0991 44.0641 45.6533 42.6731C45.2074 41.282 44.8062 39.9808 44.4495 38.6795C44.0929 37.4231 43.7808 36.2564 43.4687 35.1795H43.3795C42.9783 37.109 42.4879 39.0385 41.8637 40.9679C41.1949 43.1218 40.5262 45.3654 39.8129 47.609C39.1887 49.8974 38.5199 52.0064 37.8512 53.891Z" fill="#FF9A00"/>
<path d="M75.7024 34.5513C74.2311 34.5962 72.8045 34.0128 71.7345 32.9808C70.7091 31.859 70.1741 30.3782 70.2186 28.8526C70.1741 27.3269 70.7536 25.891 71.8236 24.859C72.8936 23.8269 74.3203 23.2885 75.7916 23.2885C77.5303 23.2885 78.8678 23.8269 79.8486 24.859C80.8295 25.9359 81.3645 27.3718 81.3199 28.8526C81.3645 30.3782 80.8295 31.859 79.7595 32.9808C78.7341 34.0577 77.2182 34.641 75.7024 34.5513ZM70.7091 73.5V38.9487C70.7091 38.5 70.8874 38.3205 71.2886 38.3205H80.1161C80.5174 38.3205 80.6957 38.5449 80.6957 38.9487V73.5C80.6957 73.9936 80.5174 74.2179 80.1161 74.2179H71.3778C70.932 74.2179 70.7091 73.9487 70.7091 73.5Z" fill="#FF9A00"/>
</svg>
