<svg width="116" height="105" viewBox="0 0 116 105" fill="none" xmlns="http://www.w3.org/2000/svg">
<path d="M25.2343 3.44589L57.8286 0L90.4229 3.44589L115.657 37.3207L57.8286 104.662L0 37.3207L25.2343 3.44589Z" fill="#FDB300"/>
<path d="M23.4235 37.3206L57.8287 104.662L0 37.3206H23.4235Z" fill="#EA6C00"/>
<path d="M92.2337 37.3207L57.8285 104.662L115.657 37.3207H92.2337Z" fill="#EA6C00"/>
<path d="M23.4236 37.3207H92.2339L57.8288 104.662L23.4236 37.3207Z" fill="#FDAD00"/>
<path d="M57.8288 0L25.2343 3.44584L23.4236 37.3207L57.8288 0Z" fill="#FDD231"/>
<path d="M57.8285 0L90.4229 3.44584L92.2336 37.3207L57.8285 0Z" fill="#FDD231"/>
<path d="M115.657 37.3206L90.4227 3.44577L92.2337 37.3206H115.657Z" fill="#FDAD00"/>
<path d="M0 37.3206L25.2342 3.44577L23.4235 37.3206H0Z" fill="#FDAD00"/>
<path d="M57.8288 0L23.4236 37.3207H92.2339L57.8288 0Z" fill="#FEEEB7"/>
</svg>
